<?xml version="1.0" encoding="UTF-8" standalone="no"?>
<!DOCTYPE svg PUBLIC "-//W3C//DTD SVG 1.1//EN" "http://www.w3.org/Graphics/SVG/1.1/DTD/svg11.dtd">
<svg width="100%" height="100%" viewBox="0 0 11 14" version="1.1" xmlns="http://www.w3.org/2000/svg" xmlns:xlink="http://www.w3.org/1999/xlink" xml:space="preserve" style="fill-rule:evenodd;clip-rule:evenodd;stroke-linejoin:round;stroke-miterlimit:1.41421;">
    <g transform="matrix(1,0,0,1,-1042,-24.9995)">
        <path id="Forma-1" d="M1051.63,29.333L1050.94,29.333L1050.94,28.095C1050.94,26.361 1049.42,24.999 1047.5,24.999C1045.58,24.999 1044.06,26.361 1044.06,28.095L1044.06,29.333L1043.38,29.333C1042.62,29.333 1042,29.89 1042,30.571L1042,36.761C1042,37.442 1042.62,38 1043.38,38L1051.63,38C1052.38,38 1053,37.442 1053,36.761L1053,30.571C1053,29.89 1052.38,29.333 1051.63,29.333ZM1047.5,34.904C1046.74,34.904 1046.13,34.347 1046.13,33.666C1046.13,32.985 1046.74,32.428 1047.5,32.428C1048.26,32.428 1048.88,32.985 1048.88,33.666C1048.88,34.347 1048.26,34.904 1047.5,34.904ZM1049.63,29.333L1045.37,29.333L1045.37,28.095C1045.37,27.042 1046.33,26.176 1047.5,26.176C1048.67,26.176 1049.63,27.042 1049.63,28.095L1049.63,29.333Z" style="fill:rgb(143,143,143);fill-rule:nonzero;"/>
    </g>
</svg>
