<svg xmlns="http://www.w3.org/2000/svg" width="66.706" height="63.067" viewBox="0 0 66.706 63.067">
  <g id="Free-Pack_tablet-touch" data-name="Free-Pack / tablet-touch" transform="translate(-191.249 -454)">
    <g id="Group_85" transform="translate(192.749 455.5)">
      <g id="Regular_85">
        <path id="Shape_419" d="M212,497.1l-8.3-6.637a4.631,4.631,0,0,1-1.614-4.745h0a4.632,4.632,0,0,1,6.572-3.021L212,484.362V469.5a4.249,4.249,0,0,1,4.247-4.247h0a4.249,4.249,0,0,1,4.247,4.247v8.494l5.643.94a8.492,8.492,0,0,1,7.1,8.378V497.1" transform="translate(-175.896 -437.644)" fill="none" stroke="#fff" stroke-linecap="round" stroke-linejoin="round" stroke-width="3"/>
        <path id="Shape_420" d="M197.249,460h21.235" transform="translate(-184.508 -447.259)" fill="none" stroke="#fff" stroke-linecap="round" stroke-linejoin="round" stroke-width="3"/>
        <path id="Shape_421" d="M197.249,463h21.235" transform="translate(-184.508 -441.765)" fill="none" stroke="#fff" stroke-linecap="round" stroke-linejoin="round" stroke-width="3"/>
        <path id="Shape_422" d="M197.249,466h10.618" transform="translate(-184.508 -436.271)" fill="none" stroke="#fff" stroke-linecap="round" stroke-linejoin="round" stroke-width="3"/>
        <path id="Shape_423" d="M211.864,502.218H197a4.249,4.249,0,0,1-4.247-4.247V459.747A4.249,4.249,0,0,1,197,455.5h55.212a4.249,4.249,0,0,1,4.247,4.247v33.977" transform="translate(-192.749 -455.5)" fill="none" stroke="#fff" stroke-linecap="round" stroke-linejoin="round" stroke-width="3"/>
        <path id="Shape_424" d="M210.749,455.5v25.482" transform="translate(-159.784 -455.5)" fill="none" stroke="#fff" stroke-linecap="round" stroke-linejoin="round" stroke-width="3"/>
      </g>
    </g>
  </g>
</svg>
