<svg xmlns="http://www.w3.org/2000/svg" width="711.854" height="451.92" viewBox="0 0 711.854 451.92">
  <g id="Group_455" data-name="Group 455" transform="translate(-106.39 -4502.094)">
    <path id="Path_286" data-name="Path 286" d="M255.173,563.149l-13.339-27.7c-4.1-10.261,4.1-9.235,4.1-12.313s-14.365-15.408-10.277-19.512c4.121-4.1,9.251-4.1,9.251-7.183s-10.261-3.078-10.261-3.078-7.183-11.287-7.183-14.365V465.652s-3.078-15.392-3.078-19.5c0-4.121,8.209-4.121,10.261-12.33s-6.173-22.574-1.026-31.809c5.131-9.235,22.574-45.165,22.574-53.374s10.261-7.183,6.157-9.235-1.01-36.94-1.01-36.94l16.418,12.313-1.042,8.209,9.251-4.1,1.01-18.486s151.9,46.191,308.939,35.93c0,0,.342-5.815,2.052-5.815s3.42,6.841,4.1,8.893,16.76.684,16.76.684a4.825,4.825,0,0,1,4.446-1.026c2.736.684,14.023,8.893,17.444,8.893s5.489-2.394,10.6-2.394c5.147,0,6.5,2.052,6.5,2.052s-26.679,22.574-21.548,24.969c5.131,2.411,11.971-5.8,13.014-5.8,1.026,0,2.036,6.157,2.036,6.157l9.593-1.368,19.154-18.828,2.736,1.026s-8.209,7.2-4.447,11.971c3.762,4.8,4.1-5.13,5.13-4.772,1.026.326,7.525,5.815,8.893,6.824,1.368,1.026,14.023.342,20.18-8.551s18.812,5.147,18.47,7.541c-.326,2.394-5.473,3.762-5.473,3.762l-10.245-1.727-10.277,7.883-4.788.342s-12.313,22.916-9.935,24.969c2.411,2.052,3.779-3.078,5.147-4.446s-1.368,21.206,0,29.415,3.42,25.327,12.672,22.933c9.219-2.394,11.629-22.933,11.271-26.353-.342-3.42-7.867-7.183-7.183-17.444s-.342-17.786,2.736-16.418c3.095,1.368,4.8,3.42,5.473,1.368.7-2.052,1.368-8.893,4.1-9.235s.358-5.13-.326-6.157c-.7-1.026,7.166-1.384,10.245.342a34.752,34.752,0,0,1,8.225,2.9c3.078,1.792,3.844,12.574.5,23.861-3.323,11.287,2.573,3.339,4.1,2.313,1.547-1.026,4.626-8.469,7.7-5.9,3.078,2.557,7.183,9.756,8.209,13.339s2.557,6.417,0,8.209c-2.573,1.792-4.365,4.87-3.339,7.688,1.026,2.834-4.609,10.522,1.026,11.3,5.652.766,31.565-14.887,35.409-17.2,3.86-2.313,13.6-10.782,13.339-14.1-.26-3.339-7.688-10.782-2.557-11.548a185.118,185.118,0,0,0,22.069-5.391c3.339-1.287,9.756-3.339,9.479-7.443-.244-4.1.277-5.131-.766-10.261a19.757,19.757,0,0,1,2.052-12.313c1.042-1.547,33.617-20.522,46.712-22.574,1.531-3.078,5.9-8.209,7.688-8.73V313.5s-6.922-19.252-1.792-21.3,10.505,2.052,12.069,2.573c1.531.5.765-5.391,1.775-6.157,1.042-.766,4.626-.521,5.912-.261s7.688,20.017,9.756,20.278c2.036.244,5.9.5,6.661,2.052.782,1.531.782,3.583,1.547,4.609s4.609,1.547,5.9,2.834c1.287,1.27-10.782,17.7-10.782,17.7l-7.7-.261.277,11.027-4.365,2.052-.782,4.1-4.365.261,1.287,27.965s5.131,1.026,6.157,4.626c1.042,3.583,4.886,3.583,6.173,1.792,1.27-1.792,4.349,5.635-8.73,8.209s-11.792,5.652-13.86,8.73c-2.052,3.078-7.948,2.557-9.235,4.626-1.287,2.036-10.261,9.479-10,13.079.261,3.583,2.036,3.583,3.323,9.5,1.287,5.9-.244,16.678-1.287,18.209-1.01,1.547-7.166,3.339-8.453,1.547,0,0-6.417-4.365-5.9-2.573.5,1.792,3.583,6.922,4.609,7.443s5.391,7.7,5.652,9.5c.244,1.792.244,23.34-1.547,23.1-1.792-.261-3.078.5-3.078-2.573s-.521-11.548-1.287-12.574-1.792-2.818-3.323-3.078c-1.547-.244-3.86-3.583-3.86-5.635,0-2.068-.765-11.043-1.026-12.33-.26-1.27-1.287-4.1-2.818-2.557-1.547,1.531-1.026,17.965-.521,19.757.521,1.792-6.157,2.313-7.688,1.287-1.547-1.026-4.365,1.026-1.547,3.078,2.834,2.052,11.548,3.078,11.548,3.078s5.912,11.287,4.886,19.235c.5.782,7.688,1.026,7.688,1.026l2.818,7.7s-.244,4.87-8.209,2.557l.782,7.2s13.339-3.078,12.558-.521c-.766,2.557-3.583,6.417-5.9,6.157-2.3-.244-6.157.261-5.391,2.052.766,1.808,3.844,8.991,3.844,8.991.26,2.036-9.235,8.209-10.766,13.844-1.547,5.652-17.7,13.86-17.7,18.226,0,4.349-9.5,18.47-10.782,19.5-1.27,1.026-7.688-3.078-6.922,2.052s-1.287,11.548-1.287,11.548c-1.026,4.365-11.287,26.434-2.834,33.861,8.486,7.443,17.721,23.356,19.007,26.695,1.271,3.323,8.974,19.757,12.574,21.809,3.583,2.052,0,31.044,0,31.044s-6.938,1.547-9.251-.261c-2.3-1.792-5.635-8.209-8.469-8.974-2.818-.766-6.14-5.391-6.662-8.469-.5-3.078-2.557-4.87-6.417-6.417-3.844-1.531-6.4.521-6.922-6.922s-1.287-9.235-1.287-9.235l-4.626-1.547V653.218s-21.288-15.147-23.34-16.434c-2.052-1.27-5.13.782-8.209,3.86s-7.183,4.626-9.251,4.626c-2.036,0-15.9-3.86-17.688-5.652-1.808-1.792-2.834-6.678-6.678-3.6s-5.391,5.391-7.183,3.844c-1.792-1.531-3.86.261-5.9,2.573-2.052,2.313-4.886,2.834-5.652,2.313s-.5-5.652-1.287-6.157c-.766-.521-20.017,5.13-21.809,10s-14.87-2.052-14.365-1.026,2.052,6.678,2.052,6.678h12.313l6.157,13.6-11.287-2.834-1.026,5.652-16.662-1.026S673.4,653.218,667.5,664.5c-5.912,11.287-25.408.5-25.408.5s-4.1,10.277-14.887,2.834c0,0,.782,17.183-7.183,19.235-7.948,2.052-17.688,4.1-15.636,6.938,2.052,2.818-5.13,6.157-7.2,7.166-2.036,1.042-3.323,6.173-2.036,8.991s-2.834,4.1-3.095,5.652c-.244,1.531,1.808,4.088,2.573,7.948.782,3.844,1.287,10.782,3.339,12.574s-16.939,8.974-27.461-3.6-35.669-54.139-35.669-54.139-24.626-23.861-33.617,10.522c-7.948,4.1-18.209-13.079-22.314-17.183,0,0-1.287-25.148-26.418-32.086-25.148-6.922-28.747,1.287-28.487,5.912.081-.684-40.963-.945-40.963-.945l-52.429-30.1c.6.081-31.728.342-31.728.342l-2.655-12.411s-14.365-20.783-19.252-21.548C272.112,580.348,255.173,563.149,255.173,563.149Z" transform="translate(-118 4214)" fill="#cabba3" opacity="0.2"/>
    <g id="Group_454" data-name="Group 454">
      <g id="Group_378" data-name="Group 378" transform="translate(-3301.747 1376.032) rotate(-45)" opacity="0.061">
        <rect id="Rectangle_56" data-name="Rectangle 56" width="30" height="30" transform="translate(180.005 4737.97)" fill="none"/>
        <path id="Pin_3" data-name="Pin 3" d="M17.012,2.563l-.577.6a5.408,5.408,0,0,0-1.329,3.259L11.848,9.681a6.372,6.372,0,0,0-5.64,1.73l-.577.577.577.551L9.668,16,3,22.641v1.128H4.128L10.771,17.1l3.384,3.384.551.577.577-.577a6.369,6.369,0,0,0,1.654-6.066l2.858-2.858a4.605,4.605,0,0,0,3.835-1.253l.551-.577-.551-.577L17.614,3.139Zm.175,2.457L21.75,9.581a2.855,2.855,0,0,1-2.106.426l-.451-.125-.326.326-3.359,3.359-.351.351.15.476a4.792,4.792,0,0,1-.677,4.311L8.063,12.138a4.787,4.787,0,0,1,3.885-.827l.426.125.326-.326,3.71-3.71.226-.226V6.849A3.831,3.831,0,0,1,17.188,5.019Z" transform="translate(181.414 4739.805)"/>
      </g>
      <g id="Group_379" data-name="Group 379" transform="translate(-3314.747 1526.032) rotate(-45)" opacity="0.061">
        <rect id="Rectangle_56-2" data-name="Rectangle 56" width="30" height="30" transform="translate(180.005 4737.97)" fill="none"/>
        <path id="Pin_3-2" data-name="Pin 3" d="M17.012,2.563l-.577.6a5.408,5.408,0,0,0-1.329,3.259L11.848,9.681a6.372,6.372,0,0,0-5.64,1.73l-.577.577.577.551L9.668,16,3,22.641v1.128H4.128L10.771,17.1l3.384,3.384.551.577.577-.577a6.369,6.369,0,0,0,1.654-6.066l2.858-2.858a4.605,4.605,0,0,0,3.835-1.253l.551-.577-.551-.577L17.614,3.139Zm.175,2.457L21.75,9.581a2.855,2.855,0,0,1-2.106.426l-.451-.125-.326.326-3.359,3.359-.351.351.15.476a4.792,4.792,0,0,1-.677,4.311L8.063,12.138a4.787,4.787,0,0,1,3.885-.827l.426.125.326-.326,3.71-3.71.226-.226V6.849A3.831,3.831,0,0,1,17.188,5.019Z" transform="translate(181.414 4739.805)"/>
      </g>
      <g id="Group_380" data-name="Group 380" transform="translate(-3228.747 1423.032) rotate(-45)" opacity="0.061">
        <rect id="Rectangle_56-3" data-name="Rectangle 56" width="30" height="30" transform="translate(180.005 4737.97)" fill="none"/>
        <path id="Pin_3-3" data-name="Pin 3" d="M17.012,2.563l-.577.6a5.408,5.408,0,0,0-1.329,3.259L11.848,9.681a6.372,6.372,0,0,0-5.64,1.73l-.577.577.577.551L9.668,16,3,22.641v1.128H4.128L10.771,17.1l3.384,3.384.551.577.577-.577a6.369,6.369,0,0,0,1.654-6.066l2.858-2.858a4.605,4.605,0,0,0,3.835-1.253l.551-.577-.551-.577L17.614,3.139Zm.175,2.457L21.75,9.581a2.855,2.855,0,0,1-2.106.426l-.451-.125-.326.326-3.359,3.359-.351.351.15.476a4.792,4.792,0,0,1-.677,4.311L8.063,12.138a4.787,4.787,0,0,1,3.885-.827l.426.125.326-.326,3.71-3.71.226-.226V6.849A3.831,3.831,0,0,1,17.188,5.019Z" transform="translate(181.414 4739.805)"/>
      </g>
      <g id="Group_381" data-name="Group 381" transform="translate(-3002.747 1355.032) rotate(-45)" opacity="0.061">
        <rect id="Rectangle_56-4" data-name="Rectangle 56" width="30" height="30" transform="translate(180.005 4737.97)" fill="none"/>
        <path id="Pin_3-4" data-name="Pin 3" d="M17.012,2.563l-.577.6a5.408,5.408,0,0,0-1.329,3.259L11.848,9.681a6.372,6.372,0,0,0-5.64,1.73l-.577.577.577.551L9.668,16,3,22.641v1.128H4.128L10.771,17.1l3.384,3.384.551.577.577-.577a6.369,6.369,0,0,0,1.654-6.066l2.858-2.858a4.605,4.605,0,0,0,3.835-1.253l.551-.577-.551-.577L17.614,3.139Zm.175,2.457L21.75,9.581a2.855,2.855,0,0,1-2.106.426l-.451-.125-.326.326-3.359,3.359-.351.351.15.476a4.792,4.792,0,0,1-.677,4.311L8.063,12.138a4.787,4.787,0,0,1,3.885-.827l.426.125.326-.326,3.71-3.71.226-.226V6.849A3.831,3.831,0,0,1,17.188,5.019Z" transform="translate(181.414 4739.805)"/>
      </g>
      <g id="Group_382" data-name="Group 382" transform="translate(-2880.747 1437.032) rotate(-45)" opacity="0.061">
        <rect id="Rectangle_56-5" data-name="Rectangle 56" width="30" height="30" transform="translate(180.005 4737.97)" fill="none"/>
        <path id="Pin_3-5" data-name="Pin 3" d="M17.012,2.563l-.577.6a5.408,5.408,0,0,0-1.329,3.259L11.848,9.681a6.372,6.372,0,0,0-5.64,1.73l-.577.577.577.551L9.668,16,3,22.641v1.128H4.128L10.771,17.1l3.384,3.384.551.577.577-.577a6.369,6.369,0,0,0,1.654-6.066l2.858-2.858a4.605,4.605,0,0,0,3.835-1.253l.551-.577-.551-.577L17.614,3.139Zm.175,2.457L21.75,9.581a2.855,2.855,0,0,1-2.106.426l-.451-.125-.326.326-3.359,3.359-.351.351.15.476a4.792,4.792,0,0,1-.677,4.311L8.063,12.138a4.787,4.787,0,0,1,3.885-.827l.426.125.326-.326,3.71-3.71.226-.226V6.849A3.831,3.831,0,0,1,17.188,5.019Z" transform="translate(181.414 4739.805)"/>
      </g>
      <g id="Group_383" data-name="Group 383" transform="translate(-2799.747 1556.032) rotate(-45)" opacity="0.061">
        <rect id="Rectangle_56-6" data-name="Rectangle 56" width="30" height="30" transform="translate(180.005 4737.97)" fill="none"/>
        <path id="Pin_3-6" data-name="Pin 3" d="M17.012,2.563l-.577.6a5.408,5.408,0,0,0-1.329,3.259L11.848,9.681a6.372,6.372,0,0,0-5.64,1.73l-.577.577.577.551L9.668,16,3,22.641v1.128H4.128L10.771,17.1l3.384,3.384.551.577.577-.577a6.369,6.369,0,0,0,1.654-6.066l2.858-2.858a4.605,4.605,0,0,0,3.835-1.253l.551-.577-.551-.577L17.614,3.139Zm.175,2.457L21.75,9.581a2.855,2.855,0,0,1-2.106.426l-.451-.125-.326.326-3.359,3.359-.351.351.15.476a4.792,4.792,0,0,1-.677,4.311L8.063,12.138a4.787,4.787,0,0,1,3.885-.827l.426.125.326-.326,3.71-3.71.226-.226V6.849A3.831,3.831,0,0,1,17.188,5.019Z" transform="translate(181.414 4739.805)"/>
      </g>
      <g id="Group_384" data-name="Group 384" transform="translate(-3036.747 1668.032) rotate(-45)" opacity="0.061">
        <rect id="Rectangle_56-7" data-name="Rectangle 56" width="30" height="30" transform="translate(180.005 4737.97)" fill="none"/>
        <path id="Pin_3-7" data-name="Pin 3" d="M17.012,2.563l-.577.6a5.408,5.408,0,0,0-1.329,3.259L11.848,9.681a6.372,6.372,0,0,0-5.64,1.73l-.577.577.577.551L9.668,16,3,22.641v1.128H4.128L10.771,17.1l3.384,3.384.551.577.577-.577a6.369,6.369,0,0,0,1.654-6.066l2.858-2.858a4.605,4.605,0,0,0,3.835-1.253l.551-.577-.551-.577L17.614,3.139Zm.175,2.457L21.75,9.581a2.855,2.855,0,0,1-2.106.426l-.451-.125-.326.326-3.359,3.359-.351.351.15.476a4.792,4.792,0,0,1-.677,4.311L8.063,12.138a4.787,4.787,0,0,1,3.885-.827l.426.125.326-.326,3.71-3.71.226-.226V6.849A3.831,3.831,0,0,1,17.188,5.019Z" transform="translate(181.414 4739.805)"/>
      </g>
      <g id="Group_394" data-name="Group 394" transform="translate(-3062.747 1610.032) rotate(-45)" opacity="0.061">
        <rect id="Rectangle_56-8" data-name="Rectangle 56" width="30" height="30" transform="translate(180.005 4737.97)" fill="none"/>
        <path id="Pin_3-8" data-name="Pin 3" d="M17.012,2.563l-.577.6a5.408,5.408,0,0,0-1.329,3.259L11.848,9.681a6.372,6.372,0,0,0-5.64,1.73l-.577.577.577.551L9.668,16,3,22.641v1.128H4.128L10.771,17.1l3.384,3.384.551.577.577-.577a6.369,6.369,0,0,0,1.654-6.066l2.858-2.858a4.605,4.605,0,0,0,3.835-1.253l.551-.577-.551-.577L17.614,3.139Zm.175,2.457L21.75,9.581a2.855,2.855,0,0,1-2.106.426l-.451-.125-.326.326-3.359,3.359-.351.351.15.476a4.792,4.792,0,0,1-.677,4.311L8.063,12.138a4.787,4.787,0,0,1,3.885-.827l.426.125.326-.326,3.71-3.71.226-.226V6.849A3.831,3.831,0,0,1,17.188,5.019Z" transform="translate(181.414 4739.805)"/>
      </g>
      <g id="Group_395" data-name="Group 395" transform="translate(-2836.747 1598.032) rotate(-45)" opacity="0.061">
        <rect id="Rectangle_56-9" data-name="Rectangle 56" width="30" height="30" transform="translate(180.005 4737.97)" fill="none"/>
        <path id="Pin_3-9" data-name="Pin 3" d="M17.012,2.563l-.577.6a5.408,5.408,0,0,0-1.329,3.259L11.848,9.681a6.372,6.372,0,0,0-5.64,1.73l-.577.577.577.551L9.668,16,3,22.641v1.128H4.128L10.771,17.1l3.384,3.384.551.577.577-.577a6.369,6.369,0,0,0,1.654-6.066l2.858-2.858a4.605,4.605,0,0,0,3.835-1.253l.551-.577-.551-.577L17.614,3.139Zm.175,2.457L21.75,9.581a2.855,2.855,0,0,1-2.106.426l-.451-.125-.326.326-3.359,3.359-.351.351.15.476a4.792,4.792,0,0,1-.677,4.311L8.063,12.138a4.787,4.787,0,0,1,3.885-.827l.426.125.326-.326,3.71-3.71.226-.226V6.849A3.831,3.831,0,0,1,17.188,5.019Z" transform="translate(181.414 4739.805)"/>
      </g>
      <g id="Group_396" data-name="Group 396" transform="translate(-2852.747 1526.032) rotate(-45)" opacity="0.061">
        <rect id="Rectangle_56-10" data-name="Rectangle 56" width="30" height="30" transform="translate(180.005 4737.97)" fill="none"/>
        <path id="Pin_3-10" data-name="Pin 3" d="M17.012,2.563l-.577.6a5.408,5.408,0,0,0-1.329,3.259L11.848,9.681a6.372,6.372,0,0,0-5.64,1.73l-.577.577.577.551L9.668,16,3,22.641v1.128H4.128L10.771,17.1l3.384,3.384.551.577.577-.577a6.369,6.369,0,0,0,1.654-6.066l2.858-2.858a4.605,4.605,0,0,0,3.835-1.253l.551-.577-.551-.577L17.614,3.139Zm.175,2.457L21.75,9.581a2.855,2.855,0,0,1-2.106.426l-.451-.125-.326.326-3.359,3.359-.351.351.15.476a4.792,4.792,0,0,1-.677,4.311L8.063,12.138a4.787,4.787,0,0,1,3.885-.827l.426.125.326-.326,3.71-3.71.226-.226V6.849A3.831,3.831,0,0,1,17.188,5.019Z" transform="translate(181.414 4739.805)"/>
      </g>
      <g id="Group_397" data-name="Group 397" transform="translate(-2794.747 1479.032) rotate(-45)" opacity="0.061">
        <rect id="Rectangle_56-11" data-name="Rectangle 56" width="30" height="30" transform="translate(180.005 4737.97)" fill="none"/>
        <path id="Pin_3-11" data-name="Pin 3" d="M17.012,2.563l-.577.6a5.408,5.408,0,0,0-1.329,3.259L11.848,9.681a6.372,6.372,0,0,0-5.64,1.73l-.577.577.577.551L9.668,16,3,22.641v1.128H4.128L10.771,17.1l3.384,3.384.551.577.577-.577a6.369,6.369,0,0,0,1.654-6.066l2.858-2.858a4.605,4.605,0,0,0,3.835-1.253l.551-.577-.551-.577L17.614,3.139Zm.175,2.457L21.75,9.581a2.855,2.855,0,0,1-2.106.426l-.451-.125-.326.326-3.359,3.359-.351.351.15.476a4.792,4.792,0,0,1-.677,4.311L8.063,12.138a4.787,4.787,0,0,1,3.885-.827l.426.125.326-.326,3.71-3.71.226-.226V6.849A3.831,3.831,0,0,1,17.188,5.019Z" transform="translate(181.414 4739.805)"/>
      </g>
      <g id="Group_398" data-name="Group 398" transform="translate(-2721.747 1342.032) rotate(-45)" opacity="0.061">
        <rect id="Rectangle_56-12" data-name="Rectangle 56" width="30" height="30" transform="translate(180.005 4737.97)" fill="none"/>
        <path id="Pin_3-12" data-name="Pin 3" d="M17.012,2.563l-.577.6a5.408,5.408,0,0,0-1.329,3.259L11.848,9.681a6.372,6.372,0,0,0-5.64,1.73l-.577.577.577.551L9.668,16,3,22.641v1.128H4.128L10.771,17.1l3.384,3.384.551.577.577-.577a6.369,6.369,0,0,0,1.654-6.066l2.858-2.858a4.605,4.605,0,0,0,3.835-1.253l.551-.577-.551-.577L17.614,3.139Zm.175,2.457L21.75,9.581a2.855,2.855,0,0,1-2.106.426l-.451-.125-.326.326-3.359,3.359-.351.351.15.476a4.792,4.792,0,0,1-.677,4.311L8.063,12.138a4.787,4.787,0,0,1,3.885-.827l.426.125.326-.326,3.71-3.71.226-.226V6.849A3.831,3.831,0,0,1,17.188,5.019Z" transform="translate(181.414 4739.805)"/>
      </g>
      <g id="Group_399" data-name="Group 399" transform="translate(-2773.747 1409.032) rotate(-45)" opacity="0.061">
        <rect id="Rectangle_56-13" data-name="Rectangle 56" width="30" height="30" transform="translate(180.005 4737.97)" fill="none"/>
        <path id="Pin_3-13" data-name="Pin 3" d="M17.012,2.563l-.577.6a5.408,5.408,0,0,0-1.329,3.259L11.848,9.681a6.372,6.372,0,0,0-5.64,1.73l-.577.577.577.551L9.668,16,3,22.641v1.128H4.128L10.771,17.1l3.384,3.384.551.577.577-.577a6.369,6.369,0,0,0,1.654-6.066l2.858-2.858a4.605,4.605,0,0,0,3.835-1.253l.551-.577-.551-.577L17.614,3.139Zm.175,2.457L21.75,9.581a2.855,2.855,0,0,1-2.106.426l-.451-.125-.326.326-3.359,3.359-.351.351.15.476a4.792,4.792,0,0,1-.677,4.311L8.063,12.138a4.787,4.787,0,0,1,3.885-.827l.426.125.326-.326,3.71-3.71.226-.226V6.849A3.831,3.831,0,0,1,17.188,5.019Z" transform="translate(181.414 4739.805)"/>
      </g>
      <g id="Group_400" data-name="Group 400" transform="translate(-2841.747 1471.032) rotate(-45)" opacity="0.061">
        <rect id="Rectangle_56-14" data-name="Rectangle 56" width="30" height="30" transform="translate(180.005 4737.97)" fill="none"/>
        <path id="Pin_3-14" data-name="Pin 3" d="M17.012,2.563l-.577.6a5.408,5.408,0,0,0-1.329,3.259L11.848,9.681a6.372,6.372,0,0,0-5.64,1.73l-.577.577.577.551L9.668,16,3,22.641v1.128H4.128L10.771,17.1l3.384,3.384.551.577.577-.577a6.369,6.369,0,0,0,1.654-6.066l2.858-2.858a4.605,4.605,0,0,0,3.835-1.253l.551-.577-.551-.577L17.614,3.139Zm.175,2.457L21.75,9.581a2.855,2.855,0,0,1-2.106.426l-.451-.125-.326.326-3.359,3.359-.351.351.15.476a4.792,4.792,0,0,1-.677,4.311L8.063,12.138a4.787,4.787,0,0,1,3.885-.827l.426.125.326-.326,3.71-3.71.226-.226V6.849A3.831,3.831,0,0,1,17.188,5.019Z" transform="translate(181.414 4739.805)"/>
      </g>
      <g id="Group_401" data-name="Group 401" transform="translate(-3126.747 1363.032) rotate(-45)" opacity="0.061">
        <rect id="Rectangle_56-15" data-name="Rectangle 56" width="30" height="30" transform="translate(180.005 4737.97)" fill="none"/>
        <path id="Pin_3-15" data-name="Pin 3" d="M17.012,2.563l-.577.6a5.408,5.408,0,0,0-1.329,3.259L11.848,9.681a6.372,6.372,0,0,0-5.64,1.73l-.577.577.577.551L9.668,16,3,22.641v1.128H4.128L10.771,17.1l3.384,3.384.551.577.577-.577a6.369,6.369,0,0,0,1.654-6.066l2.858-2.858a4.605,4.605,0,0,0,3.835-1.253l.551-.577-.551-.577L17.614,3.139Zm.175,2.457L21.75,9.581a2.855,2.855,0,0,1-2.106.426l-.451-.125-.326.326-3.359,3.359-.351.351.15.476a4.792,4.792,0,0,1-.677,4.311L8.063,12.138a4.787,4.787,0,0,1,3.885-.827l.426.125.326-.326,3.71-3.71.226-.226V6.849A3.831,3.831,0,0,1,17.188,5.019Z" transform="translate(181.414 4739.805)"/>
      </g>
      <g id="Group_402" data-name="Group 402" transform="translate(-3314.747 1325.032) rotate(-45)" opacity="0.061">
        <rect id="Rectangle_56-16" data-name="Rectangle 56" width="30" height="30" transform="translate(180.005 4737.97)" fill="none"/>
        <path id="Pin_3-16" data-name="Pin 3" d="M17.012,2.563l-.577.6a5.408,5.408,0,0,0-1.329,3.259L11.848,9.681a6.372,6.372,0,0,0-5.64,1.73l-.577.577.577.551L9.668,16,3,22.641v1.128H4.128L10.771,17.1l3.384,3.384.551.577.577-.577a6.369,6.369,0,0,0,1.654-6.066l2.858-2.858a4.605,4.605,0,0,0,3.835-1.253l.551-.577-.551-.577L17.614,3.139Zm.175,2.457L21.75,9.581a2.855,2.855,0,0,1-2.106.426l-.451-.125-.326.326-3.359,3.359-.351.351.15.476a4.792,4.792,0,0,1-.677,4.311L8.063,12.138a4.787,4.787,0,0,1,3.885-.827l.426.125.326-.326,3.71-3.71.226-.226V6.849A3.831,3.831,0,0,1,17.188,5.019Z" transform="translate(181.414 4739.805)"/>
      </g>
      <g id="Group_385" data-name="Group 385" transform="translate(-3126.747 1631.032) rotate(-45)" opacity="0.061">
        <rect id="Rectangle_56-17" data-name="Rectangle 56" width="30" height="30" transform="translate(180.005 4737.97)" fill="none"/>
        <path id="Pin_3-17" data-name="Pin 3" d="M17.012,2.563l-.577.6a5.408,5.408,0,0,0-1.329,3.259L11.848,9.681a6.372,6.372,0,0,0-5.64,1.73l-.577.577.577.551L9.668,16,3,22.641v1.128H4.128L10.771,17.1l3.384,3.384.551.577.577-.577a6.369,6.369,0,0,0,1.654-6.066l2.858-2.858a4.605,4.605,0,0,0,3.835-1.253l.551-.577-.551-.577L17.614,3.139Zm.175,2.457L21.75,9.581a2.855,2.855,0,0,1-2.106.426l-.451-.125-.326.326-3.359,3.359-.351.351.15.476a4.792,4.792,0,0,1-.677,4.311L8.063,12.138a4.787,4.787,0,0,1,3.885-.827l.426.125.326-.326,3.71-3.71.226-.226V6.849A3.831,3.831,0,0,1,17.188,5.019Z" transform="translate(181.414 4739.805)"/>
      </g>
      <g id="Group_386" data-name="Group 386" transform="translate(-3218.747 1610.032) rotate(-45)" opacity="0.061">
        <rect id="Rectangle_56-18" data-name="Rectangle 56" width="30" height="30" transform="translate(180.005 4737.97)" fill="none"/>
        <path id="Pin_3-18" data-name="Pin 3" d="M17.012,2.563l-.577.6a5.408,5.408,0,0,0-1.329,3.259L11.848,9.681a6.372,6.372,0,0,0-5.64,1.73l-.577.577.577.551L9.668,16,3,22.641v1.128H4.128L10.771,17.1l3.384,3.384.551.577.577-.577a6.369,6.369,0,0,0,1.654-6.066l2.858-2.858a4.605,4.605,0,0,0,3.835-1.253l.551-.577-.551-.577L17.614,3.139Zm.175,2.457L21.75,9.581a2.855,2.855,0,0,1-2.106.426l-.451-.125-.326.326-3.359,3.359-.351.351.15.476a4.792,4.792,0,0,1-.677,4.311L8.063,12.138a4.787,4.787,0,0,1,3.885-.827l.426.125.326-.326,3.71-3.71.226-.226V6.849A3.831,3.831,0,0,1,17.188,5.019Z" transform="translate(181.414 4739.805)"/>
      </g>
      <g id="Group_387" data-name="Group 387" transform="translate(-3348.747 1444.032) rotate(-45)" opacity="0.061">
        <rect id="Rectangle_56-19" data-name="Rectangle 56" width="30" height="30" transform="translate(180.005 4737.97)" fill="none"/>
        <path id="Pin_3-19" data-name="Pin 3" d="M17.012,2.563l-.577.6a5.408,5.408,0,0,0-1.329,3.259L11.848,9.681a6.372,6.372,0,0,0-5.64,1.73l-.577.577.577.551L9.668,16,3,22.641v1.128H4.128L10.771,17.1l3.384,3.384.551.577.577-.577a6.369,6.369,0,0,0,1.654-6.066l2.858-2.858a4.605,4.605,0,0,0,3.835-1.253l.551-.577-.551-.577L17.614,3.139Zm.175,2.457L21.75,9.581a2.855,2.855,0,0,1-2.106.426l-.451-.125-.326.326-3.359,3.359-.351.351.15.476a4.792,4.792,0,0,1-.677,4.311L8.063,12.138a4.787,4.787,0,0,1,3.885-.827l.426.125.326-.326,3.71-3.71.226-.226V6.849A3.831,3.831,0,0,1,17.188,5.019Z" transform="translate(181.414 4739.805)"/>
      </g>
      <g id="Group_388" data-name="Group 388" transform="translate(-3280.747 1465.032) rotate(-45)" opacity="0.061">
        <rect id="Rectangle_56-20" data-name="Rectangle 56" width="30" height="30" transform="translate(180.005 4737.97)" fill="none"/>
        <path id="Pin_3-20" data-name="Pin 3" d="M17.012,2.563l-.577.6a5.408,5.408,0,0,0-1.329,3.259L11.848,9.681a6.372,6.372,0,0,0-5.64,1.73l-.577.577.577.551L9.668,16,3,22.641v1.128H4.128L10.771,17.1l3.384,3.384.551.577.577-.577a6.369,6.369,0,0,0,1.654-6.066l2.858-2.858a4.605,4.605,0,0,0,3.835-1.253l.551-.577-.551-.577L17.614,3.139Zm.175,2.457L21.75,9.581a2.855,2.855,0,0,1-2.106.426l-.451-.125-.326.326-3.359,3.359-.351.351.15.476a4.792,4.792,0,0,1-.677,4.311L8.063,12.138a4.787,4.787,0,0,1,3.885-.827l.426.125.326-.326,3.71-3.71.226-.226V6.849A3.831,3.831,0,0,1,17.188,5.019Z" transform="translate(181.414 4739.805)"/>
      </g>
      <g id="Group_389" data-name="Group 389" transform="translate(-3224.747 1342.032) rotate(-45)" opacity="0.061">
        <rect id="Rectangle_56-21" data-name="Rectangle 56" width="30" height="30" transform="translate(180.005 4737.97)" fill="none"/>
        <path id="Pin_3-21" data-name="Pin 3" d="M17.012,2.563l-.577.6a5.408,5.408,0,0,0-1.329,3.259L11.848,9.681a6.372,6.372,0,0,0-5.64,1.73l-.577.577.577.551L9.668,16,3,22.641v1.128H4.128L10.771,17.1l3.384,3.384.551.577.577-.577a6.369,6.369,0,0,0,1.654-6.066l2.858-2.858a4.605,4.605,0,0,0,3.835-1.253l.551-.577-.551-.577L17.614,3.139Zm.175,2.457L21.75,9.581a2.855,2.855,0,0,1-2.106.426l-.451-.125-.326.326-3.359,3.359-.351.351.15.476a4.792,4.792,0,0,1-.677,4.311L8.063,12.138a4.787,4.787,0,0,1,3.885-.827l.426.125.326-.326,3.71-3.71.226-.226V6.849A3.831,3.831,0,0,1,17.188,5.019Z" transform="translate(181.414 4739.805)"/>
      </g>
      <g id="Group_390" data-name="Group 390" transform="translate(-2955.747 1612.032) rotate(-45)" opacity="0.061">
        <rect id="Rectangle_56-22" data-name="Rectangle 56" width="30" height="30" transform="translate(180.005 4737.97)" fill="none"/>
        <path id="Pin_3-22" data-name="Pin 3" d="M17.012,2.563l-.577.6a5.408,5.408,0,0,0-1.329,3.259L11.848,9.681a6.372,6.372,0,0,0-5.64,1.73l-.577.577.577.551L9.668,16,3,22.641v1.128H4.128L10.771,17.1l3.384,3.384.551.577.577-.577a6.369,6.369,0,0,0,1.654-6.066l2.858-2.858a4.605,4.605,0,0,0,3.835-1.253l.551-.577-.551-.577L17.614,3.139Zm.175,2.457L21.75,9.581a2.855,2.855,0,0,1-2.106.426l-.451-.125-.326.326-3.359,3.359-.351.351.15.476a4.792,4.792,0,0,1-.677,4.311L8.063,12.138a4.787,4.787,0,0,1,3.885-.827l.426.125.326-.326,3.71-3.71.226-.226V6.849A3.831,3.831,0,0,1,17.188,5.019Z" transform="translate(181.414 4739.805)"/>
      </g>
      <g id="Group_391" data-name="Group 391" transform="translate(-2917.747 1526.032) rotate(-45)" opacity="0.061">
        <rect id="Rectangle_56-23" data-name="Rectangle 56" width="30" height="30" transform="translate(180.005 4737.97)" fill="none"/>
        <path id="Pin_3-23" data-name="Pin 3" d="M17.012,2.563l-.577.6a5.408,5.408,0,0,0-1.329,3.259L11.848,9.681a6.372,6.372,0,0,0-5.64,1.73l-.577.577.577.551L9.668,16,3,22.641v1.128H4.128L10.771,17.1l3.384,3.384.551.577.577-.577a6.369,6.369,0,0,0,1.654-6.066l2.858-2.858a4.605,4.605,0,0,0,3.835-1.253l.551-.577-.551-.577L17.614,3.139Zm.175,2.457L21.75,9.581a2.855,2.855,0,0,1-2.106.426l-.451-.125-.326.326-3.359,3.359-.351.351.15.476a4.792,4.792,0,0,1-.677,4.311L8.063,12.138a4.787,4.787,0,0,1,3.885-.827l.426.125.326-.326,3.71-3.71.226-.226V6.849A3.831,3.831,0,0,1,17.188,5.019Z" transform="translate(181.414 4739.805)"/>
      </g>
      <g id="Group_392" data-name="Group 392" transform="translate(-2938.747 1451.032) rotate(-45)" opacity="0.061">
        <rect id="Rectangle_56-24" data-name="Rectangle 56" width="30" height="30" transform="translate(180.005 4737.97)" fill="none"/>
        <path id="Pin_3-24" data-name="Pin 3" d="M17.012,2.563l-.577.6a5.408,5.408,0,0,0-1.329,3.259L11.848,9.681a6.372,6.372,0,0,0-5.64,1.73l-.577.577.577.551L9.668,16,3,22.641v1.128H4.128L10.771,17.1l3.384,3.384.551.577.577-.577a6.369,6.369,0,0,0,1.654-6.066l2.858-2.858a4.605,4.605,0,0,0,3.835-1.253l.551-.577-.551-.577L17.614,3.139Zm.175,2.457L21.75,9.581a2.855,2.855,0,0,1-2.106.426l-.451-.125-.326.326-3.359,3.359-.351.351.15.476a4.792,4.792,0,0,1-.677,4.311L8.063,12.138a4.787,4.787,0,0,1,3.885-.827l.426.125.326-.326,3.71-3.71.226-.226V6.849A3.831,3.831,0,0,1,17.188,5.019Z" transform="translate(181.414 4739.805)"/>
      </g>
      <g id="Group_393" data-name="Group 393" transform="translate(-3233.747 1526.032) rotate(-45)" opacity="0.061">
        <rect id="Rectangle_56-25" data-name="Rectangle 56" width="30" height="30" transform="translate(180.005 4737.97)" fill="none"/>
        <path id="Pin_3-25" data-name="Pin 3" d="M17.012,2.563l-.577.6a5.408,5.408,0,0,0-1.329,3.259L11.848,9.681a6.372,6.372,0,0,0-5.64,1.73l-.577.577.577.551L9.668,16,3,22.641v1.128H4.128L10.771,17.1l3.384,3.384.551.577.577-.577a6.369,6.369,0,0,0,1.654-6.066l2.858-2.858a4.605,4.605,0,0,0,3.835-1.253l.551-.577-.551-.577L17.614,3.139Zm.175,2.457L21.75,9.581a2.855,2.855,0,0,1-2.106.426l-.451-.125-.326.326-3.359,3.359-.351.351.15.476a4.792,4.792,0,0,1-.677,4.311L8.063,12.138a4.787,4.787,0,0,1,3.885-.827l.426.125.326-.326,3.71-3.71.226-.226V6.849A3.831,3.831,0,0,1,17.188,5.019Z" transform="translate(181.414 4739.805)"/>
      </g>
    </g>
  </g>
</svg>
