<svg xmlns="http://www.w3.org/2000/svg" width="86" height="86" viewBox="0 0 86 86">
  <g id="Group_448" data-name="Group 448" transform="translate(-91 -1685)">
    <circle id="Ellipse_1" data-name="Ellipse 1" cx="43" cy="43" r="43" transform="translate(91 1685)" fill="#c7ccc8"/>
    <path id="Checked" d="M22.239,3A19.239,19.239,0,1,0,41.477,22.239,16.82,16.82,0,0,0,40.46,16.18l-2.4,2.359a14.9,14.9,0,0,1,.462,3.7A16.279,16.279,0,1,1,22.239,5.96a15.845,15.845,0,0,1,11.238,4.578l2.081-2.081A18.776,18.776,0,0,0,22.239,3Zm16.7,6.336-16.7,16.7L15.9,19.7l-2.127,2.127,7.4,7.4,1.064,1.017L23.3,29.222,41.061,11.463Z" transform="translate(111.835 1706)" fill="#fff"/>
  </g>
</svg>
