<?xml version="1.0" encoding="UTF-8" standalone="no"?>
<!DOCTYPE svg PUBLIC "-//W3C//DTD SVG 1.1//EN" "http://www.w3.org/Graphics/SVG/1.1/DTD/svg11.dtd">
<svg width="100%" height="100%" viewBox="0 0 11 9" version="1.1" xmlns="http://www.w3.org/2000/svg" xmlns:xlink="http://www.w3.org/1999/xlink" xml:space="preserve" style="fill-rule:evenodd;clip-rule:evenodd;stroke-linejoin:round;stroke-miterlimit:1.41421;">
    <g transform="matrix(1,0,0,1,-593.863,-1449.73)">
        <g transform="matrix(1,0,0,1,3.16647,4.22204)">
            <path id="Arrow" d="M591.341,1450.3L599.328,1450.3L596.929,1452.7C596.678,1452.95 596.678,1453.36 596.929,1453.61C597.181,1453.87 597.589,1453.87 597.841,1453.61L601.34,1450.11C601.461,1449.99 601.529,1449.83 601.529,1449.66C601.529,1449.49 601.461,1449.32 601.34,1449.2L597.841,1445.7C597.715,1445.57 597.55,1445.51 597.385,1445.51C597.22,1445.51 597.055,1445.57 596.929,1445.7C596.678,1445.95 596.678,1446.36 596.929,1446.61L599.328,1449.01L591.341,1449.01C590.985,1449.01 590.696,1449.3 590.696,1449.66C590.696,1450.01 590.985,1450.3 591.341,1450.3Z" style="fill:rgb(239,69,75);fill-rule:nonzero;"/>
        </g>
    </g>
</svg>
